<svg enable-background="new 0 0 36.293 36.292" height="36.292" viewBox="0 0 36.293 36.292" width="36.293"
    xmlns="http://www.w3.org/2000/svg">
    <path
        d="m7.984 15.654v4.985c0 .827-.672 1.5-1.5 1.5h-4.984c-.828 0-1.5-.673-1.5-1.5v-4.985c0-.829.672-1.5 1.5-1.5h4.984c.828 0 1.5.673 1.5 1.5zm26.808-1.5h-21.503-.781c-.827 0-1.5.671-1.5 1.5v4.985c0 .827.673 1.5 1.5 1.5h.781 21.504c.828 0 1.5-.673 1.5-1.5v-4.985c-.001-.827-.672-1.5-1.501-1.5zm-28.308-11.375h-4.984c-.828 0-1.5.671-1.5 1.5v4.985c0 .829.672 1.5 1.5 1.5h4.984c.828 0 1.5-.671 1.5-1.5v-4.985c0-.827-.672-1.5-1.5-1.5zm28.308 0h-21.503-.781c-.827 0-1.5.671-1.5 1.5v4.985c0 .829.673 1.5 1.5 1.5h.781 21.504c.828 0 1.5-.671 1.5-1.5v-4.985c-.001-.827-.672-1.5-1.501-1.5zm-28.308 22.751h-4.984c-.828 0-1.5.671-1.5 1.5v4.984c0 .83.672 1.5 1.5 1.5h4.984c.828 0 1.5-.67 1.5-1.5v-4.984c0-.829-.672-1.5-1.5-1.5zm28.308 0h-21.503-.781c-.827 0-1.5.671-1.5 1.5v4.984c0 .83.673 1.5 1.5 1.5h.781 21.504c.828 0 1.5-.67 1.5-1.5v-4.984c-.001-.829-.672-1.5-1.501-1.5z" />
</svg>